<svg xmlns="http://www.w3.org/2000/svg" viewBox="0 0 283.6 51.7" enable-background="new 0 0 283.6 51.7"><style type="text/css">.st0{fill:#962549;} .st1{fill:#F22335;}</style><path d="M113.3 10.1c.2.2.3.4.3.6 0 .3-.1.4-.4.4-.9-.1-1.7-.1-2.4 0-.6.1-1.1.3-1.5.8-.5.5-.7 1.1-.7 1.9 0 .7.3 1.1.9 1.4.3.2.9.3 1.6.4.2 0 .4.1.5.3.1.2.2.3.2.5 0 .3-.3.5-.9.4-.9 0-1.6-.3-2.2-.7-.7-.5-1-1.2-1-2.2 0-.5.2-1 .5-1.5s.7-.8 1.2-1.1c-1 .2-1.9.5-2.5.8-.2.1-.4.2-.6.4-.2.2-.3.2-.4.3-.1.1-.2.1-.3.1-.3 0-.5-.2-.7-.5-.1-.2-.2-.3-.2-.5 0-.3.1-.5.4-.6.3-.1.6-.4 1.1-.7 1-.9 2.4-2.1 3.9-3.4.1-.1.1-.1.1-.2s-.1-.1-.2-.1c-.3 0-.7.1-1.2.4l-.5.2s-.3.1-.4.1c-.3 0-.5-.2-.7-.5-.1-.3-.2-.6-.2-.9.1-.1.2-.1.3-.1.1.3.3.4.7.4.2 0 .6-.1 1.3-.2s1.1-.2 1.2-.2c.3 0 .5.1.7.2.3.3.5.6.5.9 0 .2-.1.3-.4.4-.6.2-1.5.8-2.8 1.7-1.1.8-1.8 1.4-2.2 1.8-.1.1-.1.1-.1.2l.1.1h.1c.8-.2 2.1-.5 3.9-.9.6-.1 1-.2 1.2-.3.4-.1.8-.1 1.2-.1.2-.2.4-.1.6 0zM128.3 11.3c0 1.5-.6 2.7-1.8 3.6-1.1.8-2.4 1.3-4.1 1.4-.1-.1-.1-.2 0-.4 1.3-.2 2.4-.7 3.2-1.5 1-.9 1.5-1.9 1.5-3.2 0-1.3-.4-2.3-1.1-3.1-.7-.8-1.7-1.1-2.9-1.2.1.3.1.7.1 1.1 0 1.6-.4 3.2-1.2 4.6-.7 1.3-1.3 2.1-2 2.2h-.4c-.4 0-.7-.2-1-.5-.6-.7-1-1.6-1-2.7 0-1.3.5-2.5 1.5-3.6s2.3-1.7 3.8-1.7 2.7.4 3.7 1.3c1.2 1.1 1.7 2.3 1.7 3.7zm-5.6-4.3c-1.1.1-2 .6-2.8 1.5-.7.9-1.1 2-1.1 3.2 0 .6.1 1.1.3 1.4s.5.5.8.4c.5-.1 1.1-.7 1.7-1.9.6-1.3.9-2.5 1-3.8.1-.4.1-.7.1-.8zM141.3 6.7c.1 0 .1.1.1.2s0 .1-.1.2c-.1 0-.2.1-.4.2-.1.1-.1.2-.1.3v1.2c0 1.4 0 3 .1 4.9 0 1.9.1 2.8.1 2.6 0 .1-.1.2-.3.3-.2.1-.4.1-.7.1-.2 0-.3-.1-.3-.2v-.7h-5.2v.8c0 .1-.1.2-.3.3-.2.1-.4.1-.7.1-.2 0-.3-.1-.3-.3 0 .2 0-.7.1-2.7s.1-3.6.1-4.9c0-1.7-.1-2.7-.2-3v-.1h.1c.3.1.7.3 1.3.6h4.7c.1 0 .1 0 .2-.1l.4-.5c.1-.1.2-.1.3 0 .3.1.7.3 1.1.7zm-1.7 4.2v-4h-5.2v4h5.2zm0 4.4v-4h-5.2v4h5.2zM148.6 10.9c-.5 1.6-.8 2.8-.8 3.7 0 .3 0 .6.2.8.1.1.1.2.1.3 0 .2-.1.3-.1.4-.1.1-.2.2-.4.2s-.4-.1-.6-.2c-.7-.6-1-1.7-1-3.3 0-.9.1-1.9.4-3.2.3-1.2.4-2 .4-2.4s-.1-.7-.3-1c0-.1.1-.2.2-.2.8.4 1.2 1 1.2 1.7 0 .3-.1.7-.3 1.2-.3.8-.5 1.3-.6 1.6-.2.7-.3 1.5-.3 2.2 0 .2 0 .5.1.8.1.5.2.7.3.7s.1 0 .1-.1c.4-1.3.8-2.4 1.1-3.3.1 0 .2 0 .3.1zm7.7 4.6c-.1 0-.2 0-.3-.1-.7-.5-1.3-.9-1.8-1.1-.1 1.1-.8 1.6-2.1 1.7-.6 0-1.1-.1-1.5-.4s-.5-.7-.5-1.2c0-.4.2-.7.6-1 .4-.3.8-.4 1.4-.4.4 0 .8 0 1.2.1-.1-1.5-.1-2.6-.1-3.2v-.2c-.8.1-1.4.1-2 0-.4 0-.7-.2-1-.5-.2-.3-.4-.7-.4-1.1.1-.1.2-.1.3 0 0 .2.2.4.3.6.2.2.4.2.7.3.7 0 1.4 0 2.1-.1v-1.9c0-.3 0-.5-.1-.5s-.3-.1-.5-.1c-.1-.1-.1-.2 0-.3.5-.2.9-.2 1.3 0 .3.1.5.3.5.6 0 0 0 .1-.1.3-.1.2-.1.3-.2.4.6.5.9.7 1.1.7.3 0 .5 0 .6.1s.1.2.1.3c0 .3-.1.5-.4.6-.4.2-.9.4-1.6.5v.3c0 .7 0 1.4.1 2l.2 1.4c.8.2 1.6.6 2.2 1 .3.2.4.4.4.7-.1.3-.2.5-.5.5zm-3.1-1.5c-.4-.1-.9-.2-1.3-.2-.7 0-1.1.2-1.2.6 0 .3.1.4.3.5s.5.2 1 .1c.3 0 .6-.1.8-.3.3-.1.4-.4.4-.7zm1.2-5.8c-.1-.1-.3-.3-.5-.6v1c.2-.1.4-.1.5-.2.1.1.1 0 0-.2zM162.7 15.3c.1.2.2.5.2.7s-.1.5-.2.7c-.2.2-.3.3-.6.3-.2 0-.3-.1-.5-.3-.6-1.1-1.5-2-2.5-2.7v-.2l.1-.1c.7 0 1.4.2 2.1.5.6.2 1.1.6 1.4 1.1zM174.2 8.2c-.2.5-.6 1.4-1 2.7-.6 1.7-1 2.7-1 3.1v.3c0 .3.1.7.3 1.2s.3.9.3 1c.1.5-.2.7-.7.7s-.7-.1-.7-.5v-1.4c0-.3 0-.5-.1-.8s-.2-.5-.4-.6c-.1-.1-.4-.2-.8-.2-.1-.1-.1-.2 0-.3.6 0 1 0 1.2-.3.3-.3.7-1.2 1.5-2.6l1.2-2.4c.1-.1.2 0 .2.1zm-2 1.4c.1.1.1.3.1.4l-.1.5c-.1.1-.2.2-.4.2s-.4-.1-.5-.4c-.3-.7-.7-1.2-1.2-1.6 0-.1 0-.2.1-.3 1 .2 1.7.6 2 1.2zm1.2-3c.1.1.1.3.1.4 0 .2-.1.3-.2.5-.1.1-.2.2-.4.2s-.3-.1-.5-.4c-.4-.8-.8-1.4-1.4-1.7 0-.1 0-.2.1-.3 1.2.2 1.9.6 2.3 1.3zm3.1 1c.1.1.1.3.1.4 0 .2 0 .3-.1.5-.1.1-.2.2-.4.2s-.3-.1-.4-.4c-.3-1-.8-1.9-1.5-2.4 0-.1 0-.2.1-.2.5.2 1 .5 1.4.8.4.4.7.7.8 1.1zm5 1.6c.1.1.1.2 0 .3-.1 0-.2.1-.4.1-.1 0-.1.2-.1.3v5.5c0 .4-.1.8-.3 1-.2.3-.6.5-1.2.6-.1-.5-.3-.8-.5-1s-.6-.3-1.1-.3c-.1-.1-.1-.2.1-.3.6 0 1.1.1 1.6.1.3 0 .4-.1.4-.4v-1.7h-4.2v3.2c0 .1-.1.2-.3.3-.2.1-.4.1-.6.1-.2 0-.3-.1-.3-.3 0 .2 0-.5.1-2.1 0-1.6.1-3 .1-4.3 0-1 0-1.6-.1-1.8v-.1h.2c.3.1.7.3 1.1.5h1.5v-3.2c0-.4 0-.6-.1-.7v-.2h.1c.5.1.9.1 1.4.3.1 0 .1.1.1.2s-.1.1-.2.1c-.3 0-.4.1-.4.3v3.3h1.4c.1 0 .1 0 .1-.1.1-.1.2-.3.4-.5.1-.1.2-.1.3 0 .2.3.5.5.9.8zm-1.6 1.9v-1.6h-4.2v1.6h4.2zm0 2.1v-1.7h-4.2v1.7h4.2zm1.9-6.8c0 .1-.1.1-.2.1-.2 0-.3 0-.5.1-.8.9-1.6 1.7-2.4 2.4-.1 0-.1 0-.1-.1l-.1-.1c.4-.5.8-1.1 1.1-1.7s.5-1.1.6-1.5c0-.1 0-.1.1-.1h.1c.3.1.7.4 1.3.8.2-.1.2 0 .1.1zM195.1 15.6c0 .4-1 .7-3 .7-.7 0-1.2-.1-1.5-.3-.3-.2-.5-.6-.4-1.2v-1.2c0-.5-.2-.8-.6-.8-.5 0-.8.1-1.1.4-.4.3-1 1.2-2 2.6-.1.2-.3.3-.5.3s-.4-.2-.4-.5c0-.4.1-.8.5-1.1.4-.3 1.2-1.1 2.3-2.2 1.2-1.2 2-2 2.4-2.3.2-.2.4-.4.4-.5 0-.2-.1-.2-.3-.2-.5 0-1.2.3-2.2.9l-.5.3c-.2.1-.3.2-.5.2-.3 0-.5-.1-.7-.3-.2-.2-.2-.4-.2-.7 0-.3.1-.6.2-.8.1-.1.2 0 .3.1v.1c0 .3.1.5.4.5.3 0 .9-.2 1.7-.5s1.5-.5 1.9-.5c.7 0 1.1.3 1.2.9 0 .2 0 .3-.2.4 0 0-.2.1-.5.3-.5.3-1.3 1-2.4 2.1v.1h.1c.2-.1.4-.1.5-.1.8 0 1.2.4 1.2 1.3v.8c0 .4.1.6.2.8.1.1.4.1.9.1.6 0 1.2-.1 1.9-.3.2-.1.4 0 .6.1.2.2.3.4.3.5zm-3.3-8.9c.1.2.2.3.2.4 0 .3-.1.4-.4.3-.3-.1-.6-.1-.9-.1-.6 0-1.1.2-1.7.5-.1 0-.2-.1-.2-.2l.9-.6c-.6-.2-.9-.6-1.1-1.3.1-.1.1-.2.3-.1.1.2.4.4.8.5.4.1.8.2 1.3.1.3 0 .6.2.8.5zM204.7 7.2c.1.1.2.2.2.4 0 .4-.8.7-2.4.9-.3 1-.7 2-1.2 3.1s-.9 1.9-1.2 2.4c-.1.2-.3.3-.5.3s-.3-.1-.4-.2c-.1-.2-.1-.3-.1-.5s.1-.3.2-.5c1-1.3 1.8-2.8 2.5-4.5h-.7c-.5 0-.9-.1-1.1-.4-.2-.3-.4-.6-.4-1 .1-.1.2-.1.3-.1.1.5.5.8 1.2.8.3 0 .6 0 .9-.1.1-.5.2-1 .3-1.4 0-.3 0-.5-.1-.6s-.2-.1-.4-.1c-.1-.1-.1-.2 0-.3.4-.1.8 0 1.2.2.3.1.4.3.4.6 0 .1 0 .2-.1.3-.2.2-.3.4-.4.6l-.1.4c.5-.2.9-.3 1.2-.5.1 0 .3 0 .7.2zm3.6 8.9c-.1 0-.2 0-.3-.1-.6-.5-1.1-.8-1.6-1.1-.1 1.1-.8 1.7-2 1.7-.6 0-1.1-.1-1.6-.4-.4-.3-.6-.7-.6-1.2 0-.4.2-.8.6-1 .4-.3.9-.4 1.4-.4.4 0 .8 0 1.2.1 0-1.7-.1-2.6-.1-2.5 0-1 .5-1.5 1.4-1.6.3 0 .5-.2.5-.5 0-.2-.1-.3-.3-.5s-.4-.3-.6-.4c-.1-.1 0-.2.1-.3.5 0 1 .2 1.5.4.5.3.8.6.7 1 0 .5-.3.8-1 .8h-1c-.6 0-.8.3-.8 1 0 .4.1.9.2 1.5.1.4.2.9.2 1.3.8.2 1.5.5 2 .8.3.2.4.4.4.7 0 .1 0 .3-.1.4 0 .2-.1.3-.2.3zm-2.9-1.5c-.4-.1-.8-.2-1.2-.2-.8 0-1.2.2-1.2.7 0 .2.1.4.3.5s.6.2 1 .1c.7 0 1-.4 1.1-1.1zM217 11.4c-.2.3-.3.8-.6 1.4-.3.7-.4 1.2-.4 1.3 0 .1 0 .2.1.3.1.1.1.2.1.3v.2c0 .4-.2.5-.6.5h-.2c-.5 0-1-.4-1.3-1-.4-.7-.6-1.5-.7-2.6v-3.7s-.1-.7-.3-.9c0-.1 0-.2.2-.2.7.3 1.1.7 1.2 1.2v.5s0 .5-.1 1.1c-.1.5-.1 1-.1 1.3v.6c0 .3.1.7.2 1.1.1.6.3.9.5.9.1 0 .2-.1.3-.2.5-.9.9-1.6 1.3-2.2.2-.1.3 0 .4.1zm6 .7c0 .2-.1.4-.2.6-.1.2-.3.3-.5.3-.3 0-.5-.1-.5-.5 0-.8-.2-1.5-.6-2.1-.4-.7-.9-1.1-1.6-1.3-.1-.1-.1-.2.1-.3.9.1 1.7.4 2.4 1.1.5.6.9 1.4.9 2.2zM230 15c0 .6-.2 1-.6 1.4-.4.4-.9.6-1.4.6-.6 0-1-.2-1.4-.6s-.6-.9-.6-1.4c0-.6.2-1 .6-1.4.4-.4.9-.6 1.4-.6.6 0 1 .2 1.4.6.4.4.6.8.6 1.4zm-.6 0c0-.4-.1-.7-.4-1-.3-.3-.6-.4-1-.4s-.7.1-1 .4-.4.6-.4 1 .1.7.4 1c.3.3.6.4 1 .4s.7-.1 1-.4c.2-.3.4-.6.4-1z"/><path class="st0" d="M49.2 28.2l1.2.1s.7-.1 1.2-.1l.8 2.7 1.5 5.1 2.1 6.7h.2c1.6-4.6 4.3-12.4 4.9-14.5l.7.1s.5-.1.7-.1c.5 1.8 2.5 7.6 4.8 14.5h.2c.4-1 .7-1.9 1-2.9l3-9.6.6-2.1.9.1.9-.1c-.5 1-.9 2.1-1.3 3.2l-4.8 14.1c-.3 0-.6-.1-.8-.1-.3 0-.6.1-.8.1-.3-1-3-9.3-4.6-14.2h-.2l-4.9 14.2c-.3 0-.6-.1-.8-.1l-.9.1c-.4-1.2-.7-2.3-1-3.3l-4.6-13.9zM89.8 45.6c-.5 0-.9-.1-1.3-.1-.5 0-.9.1-1.3.1-.7-2.1-1.6-4.5-2.7-6.8h-6.4c-.9 2.2-1.8 4.5-2.5 6.8-.4 0-.6-.1-.9-.1l-.9.1 7.9-17.7h.6l7.5 17.7zm-8.5-14.4l-2.8 6.5h5.6l-2.8-6.5zM96.9 45.6c-.4 0-.8-.1-1.1-.1-.4 0-.8.1-1.1.1v-16.2c-2.6 0-4.1.2-5.6.3l.1-.8s-.1-.5-.1-.8h13.1l-.1.8s0 .5.1.8c-1.3-.2-3-.3-5.3-.3v16.2zM117.9 45.6c-.5 0-.9-.1-1.3-.1-.5 0-.9.1-1.3.1-.7-2.1-1.6-4.5-2.7-6.8h-6.4c-.9 2.2-1.8 4.5-2.5 6.8-.4 0-.6-.1-.9-.1l-.9.1 7.9-17.7h.6l7.5 17.7zm-8.5-14.4l-2.8 6.5h5.6l-2.8-6.5zM121.5 28.2h5c3.7 0 5.7.9 5.7 3.5 0 2.4-1.8 3.9-4 4.5 2 .1 4.6 1 4.6 4 0 1.8-.8 3.3-2.3 4.3s-3.6 1-5.3 1h-3.6v-17.3h-.1zm2.2 7.6c1.4 0 2.9.1 4.2-.5 1.2-.6 2-1.7 2-3.1 0-2.4-1.6-3.1-4.3-3.1h-1.9v6.7zm0 8.7h2.4c2.5 0 4.3-1.6 4.3-3.9 0-3-2.2-3.8-5.2-3.8h-1.4l-.1 7.7zM140.4 35.8h3.9l2.3-.1c0 .2-.1.4-.1.7 0 .2 0 .4.1.7l-2.3-.1h-3.9v7.4l4.6-.1c.8 0 1.5-.1 2.3-.2l-.1.8s.1.5.1.8h-9.1v-17.3h9l-.1.8s0 .5.1.8c-.8-.2-1.5-.2-2.3-.3l-2.5-.1h-2v6.2zM158.9 28.2l1.2.1s.7 0 1.2-.1l.8 2.7 1.5 5.1 2.1 6.7h.2c1.6-4.6 4.3-12.4 4.9-14.5l.7.1s.5 0 .7-.1c.5 1.8 2.5 7.6 4.8 14.5h.2c.4-1 .7-1.9 1-2.9l3-9.6.6-2.1.9.1c.3 0 .6 0 .9-.1-.5 1-.9 2.1-1.3 3.2l-4.8 14.1c-.3 0-.6-.1-.8-.1-.3 0-.6.1-.8.1-.3-1-3-9.3-4.6-14.2h-.2l-4.9 14.2c-.3 0-.6-.1-.8-.1l-.9.1c-.4-1.2-.7-2.3-1-3.3l-4.6-13.9zM188.6 35.8h3.9l2.3-.1c0 .2-.1.4-.1.7 0 .2 0 .4.1.7l-2.3-.1h-3.9v7.4c1.5.1 3.1 0 4.6-.1.8 0 1.5-.1 2.3-.2l-.1.8s.1.5.1.8h-9.1v-17.3h9l-.1.8s.1.5.1.8c-.8-.2-1.5-.2-2.3-.3l-2.5-.1h-2v6.2zM200.1 28.3h5.8c2.6 0 5.2-.3 7.3 1.5 1.9 1.6 2.7 3.9 2.7 6.3 0 3.5-1.3 5.8-3.2 7.5-2.2 1.9-5 1.9-7.7 1.9h-4.9v-17.2zm2.3 16.1c2.2.1 5.4.4 7.4-.6 2.7-1.4 3.7-4.2 3.7-7.3 0-5.4-2.2-7.3-7.9-7.3-1 0-2.1.1-3.2.1v15.1zM220 28.3h5.8c2.6 0 5.2-.3 7.3 1.5 1.9 1.6 2.7 3.9 2.7 6.3 0 3.5-1.3 5.8-3.2 7.5-2.2 1.9-5 1.9-7.7 1.9h-4.9v-17.2zm2.2 16.1c2.2.1 5.4.4 7.4-.6 2.7-1.4 3.6-4.2 3.6-7.3 0-5.4-2.2-7.3-7.9-7.3-1 0-2.1.1-3.2.1v15.1h.1zM239.7 28.2l1.1.1c.4 0 .7 0 1.1-.1v17.3c-.4 0-.8-.1-1.1-.1-.4 0-.8.1-1.1.1v-17.3zM262.7 45.6h-.8c-.3-.4-.8-1-1.3-1.5l-11-12.1h-.3v13.7c-.3 0-.5-.1-.7-.1-.3 0-.5.1-.7.1v-17.3h1l12 13.1h.3v-13.1l.7.1s.5 0 .7-.1l.1 17.2zM282.7 31.3c-1.4-1.6-3.5-2.5-5.7-2.5-4.3 0-7.3 2.8-7.3 8 0 5 2.6 8.1 7.6 8.1 1.4 0 2.8-.3 4-.9v-6.5l1.1.1 1.1-.1v7.2c-2.2.8-4.5 1.2-6.9 1.2-6.4 0-9.4-3.8-9.4-9 0-5.9 4.3-9.1 9.9-9.1 3.8 0 5.9 1.1 6.5 1.5-.2.6-.4 1.3-.6 2h-.3zM11.9 27.9h7.9v.2c-.7 7.1-.9 14.2-3.9 14.2-.6 0-1.1-.3-1.5-.8-1.9-2.3-2.2-9.2-3.5-12.1-.4-.8-1-1.3-1.6-1.3-.6 0-1.4.6-1.7 1.5-2.3 7.4 1.3 17.7-.3 21.5-.1.4-.5.6-1 .6l-.5-.1c-4.6-2-8.6-20.9-3.1-32.3 3.1.4 9.1.6 11.8 0-1.5 2.7-2.4 6-2.6 8.6z"/><path class="st1" d="M9.3 28.1c-.6 0-1.4.6-1.7 1.5-2.3 7.4 1.3 17.7-.3 21.5-.1.4-.5.6-1 .6h9.3c1.2 0 2.2-.7 2.5-1.2.9-1.5 1.1-4.7.7-7.9h6.4c1.6 0 2.5-.6 3-1.5 1.3-2.4 1.4-7.2 2.4-13.6 1.5-9.3 4.7-19.9 14-27.5-2.6.6-13 .8-15.3 0-7.1 7.1-8.7 18.6-9.7 28.2-.8 7.1-1 14.2-3.9 14.2-.6 0-1.1-.3-1.5-.8-1.9-2.3-2.2-9.2-3.5-12.1-.2-.8-.8-1.4-1.4-1.4z"/></svg>