<svg xmlns="http://www.w3.org/2000/svg" viewBox="0 0 30 30"><defs><style>.cls-1{fill:#1a181c;}.cls-2{fill:#fff;}</style></defs><title>资源 4</title><g id="图层_2" data-name="图层 2"><g id="图层_1-2" data-name="图层 1"><circle class="cls-1" cx="15" cy="15" r="15"/><path class="cls-2" d="M27.52,18.2a1.65,1.65,0,0,1-2.09,1.11A1.3,1.3,0,0,1,24.26,18c.42,0,.83,0,1.24,0s.4-.09.39-.38,0-.84,0-1.26a.53.53,0,0,0-.56-.58c-.72,0-1.44,0-2.23,0v3.57h-1.6V15.8H19.87V14.15h1.57v-1.4h-1V11.14l1.06-.05v-.56h1.61c-.06.45.12.59.58.6a1.78,1.78,0,0,1,1.92,2c0,.34,0,.68,0,1.06a1.77,1.77,0,0,1,1.95,1.21V18.2Zm-4.44-5.53a11.66,11.66,0,0,0,0,1.22.38.38,0,0,0,.27.25c.2,0,.56-.07.56-.14a2.64,2.64,0,0,0-.05-1.12c0-.13-.46-.13-.8-.21ZM7.43,10.53q0,3.68,0,7.35a1.33,1.33,0,0,1-1.66,1.45,1.21,1.21,0,0,1-1-1.32H5.82V10.53Zm6.86,0c-.39.79-.83,1.56-1.12,2.31l2-.12c-.37.76-.7,1.42-1,2.09,0,.09-.08.18-.13.27-.34.7-.34.7.43.72l.3,0c-.21.42-.4.81-.61,1.19a.26.26,0,0,1-.19.13,16.27,16.27,0,0,1-1.71,0c-.41-.05-.56-.36-.4-.75s.42-.95.64-1.42c.07-.16.14-.33.25-.57-.31,0-.54,0-.77,0-.68,0-.91-.33-.63-.94.44-1,.94-1.94,1.41-2.9ZM2.49,16.68c.1-.56.23-1.13.3-1.7s.12-1.43.17-2.19h1.7c-.28,2,.06,4-1.21,5.79-.34-.6-.65-1.15-1-1.7a1.27,1.27,0,0,0,0-.2Zm25-4.54a1.33,1.33,0,0,1-1.56.55c-.18-.8-.05-1.32.38-1.52s.76,0,1.18.47v.5Z"/><path class="cls-2" d="M18.17,17.74c.44,0,.86,0,1.27,0s.35.1.36.35c.08,1.28.09,1.28-1.2,1.28H14.05c.28-.56.51-1.05.78-1.52.05-.09.27-.1.41-.11h1.24v-5h-1V11.16h3.74v1.56h-1Zm-9.59-5h1.59a19.92,19.92,0,0,0,.26,2.91,3.59,3.59,0,0,1-.67,2.8C9,17.81,8.57,15.79,8.58,12.78Zm2.87,4.94H14c-.28.56-.51,1-.76,1.47a.4.4,0,0,1-.28.17c-.75,0-1.5,0-2.37,0l.84-1.64Z"/></g></g></svg>