<?xml version="1.0" encoding="UTF-8"?>
<svg width="30px" height="30px" viewBox="0 0 30 30" version="1.1" xmlns="http://www.w3.org/2000/svg" xmlns:xlink="http://www.w3.org/1999/xlink">
    <!-- Generator: Sketch 61 (89581) - https://sketch.com -->
    <title>天猫</title>
    <desc>Created with Sketch.</desc>
    <g id="页面-1" stroke="none" stroke-width="1" fill="none" fill-rule="evenodd">
        <g id="首页" transform="translate(-1380.000000, -47.000000)" fill-rule="nonzero">
            <g id="顶部">
                <g id="天猫" transform="translate(1380.000000, 47.000000)">
                    <path d="M0,15 C0,23.2842712 6.71572875,30 15,30 C23.2842712,30 30,23.2842712 30,15 C30,6.71572875 23.2842712,0 15,0 C6.71572875,0 0,6.71572875 0,15 Z" id="路径" fill="#1A181C"></path>
                    <path d="M6.310875,16.114125 C6.45525,16.020375 6.625875,15.970125 6.797625,15.982875 C7.007625,15.964125 7.200375,16.066125 7.379625,16.162125 C7.656375,16.312875 7.858125,16.562625 8.064,16.79475 C8.26096735,17.0274932 8.46339868,17.2555566 8.671125,17.47875 C8.899875,17.74125 9.163125,17.96925 9.425625,18.1965 C9.773625,18.47775 10.160625,18.7125 10.577625,18.87375 C10.79925,18.9375 11.017125,19.02525 11.247,19.05375 C11.405625,19.06875 11.562,19.104375 11.721375,19.11 L17.786625,19.11 C17.90325,19.105125 18.018375,19.07925 18.13575,19.07475 C18.63375,19.038375 19.1175,18.888375 19.567875,18.675 C19.8026946,18.5552371 20.0285349,18.41863 20.243625,18.26625 C20.435625,18.12975 20.609625,17.97 20.7855,17.812875 C20.956125,17.659125 21.11925,17.496 21.272625,17.323875 C21.375375,17.206125 21.4875,17.097375 21.581625,16.971 C21.754875,16.739625 21.917625,16.495125 22.133625,16.302375 C22.27725,16.188 22.429125,16.067625 22.613625,16.034625 C22.78725,16.00575 22.977375,16.008375 23.133,16.10325 C23.356875,16.240125 23.51025,16.468875 23.608875,16.7085 C23.723625,16.933875 23.764875,17.185875 23.816625,17.431125 C23.854125,17.599875 23.863875,17.773125 23.892375,17.94375 C23.902125,18.064875 23.9055,18.185625 23.923125,18.30525 L23.923125,24.23025 L5.548125,24.23025 L5.548125,19.47 C5.5575,19.10175 5.55,18.7335 5.551875,18.366375 C5.554875,18.2265 5.547,18.086625 5.56275,17.948625 C5.59575,17.758875 5.59575,17.565375 5.643375,17.37825 C5.68313747,17.1466472 5.74984022,16.9204871 5.842125,16.704375 C5.94158016,16.4686357 6.10369291,16.264633 6.310875,16.1145 L6.310875,16.114125 Z M8.578125,19.342875 C8.406375,19.402875 8.232,19.461375 8.0775,19.56 C7.70721305,19.7816994 7.41929231,20.1180677 7.257375,20.518125 C7.1693079,20.707388 7.12130404,20.9128088 7.116375,21.1215 C7.093125,21.255375 7.09575,21.39375 7.1175,21.528 C7.1175,21.7425 7.174875,21.954375 7.2675,22.14675 C7.335,22.31925 7.439625,22.473375 7.55325,22.618125 C7.683,22.768125 7.82325,22.9125 7.99275,23.016 C8.25063969,23.1873316 8.54213685,23.3016292 8.84775,23.35125 C8.88075,23.349375 8.925375,23.364375 8.9445,23.326875 C8.8845,23.236875 8.81925,23.150625 8.772375,23.052375 C8.678625,22.885875 8.643375,22.697625 8.592375,22.516125 C8.568375,22.411125 8.553375,22.304625 8.528625,22.198875 C8.504625,22.113375 8.523,22.02375 8.510625,21.937125 C8.488875,21.839625 8.500125,21.73875 8.494875,21.63975 C8.49226849,21.3685022 8.49289353,21.0972329 8.49675,20.826 C8.494125,20.737875 8.522625,20.65275 8.517,20.565 C8.563125,20.23875 8.626875,19.908 8.773125,19.6095 C8.821875,19.50675 8.88975,19.415625 8.949,19.31925 C8.829375,19.2705 8.69625,19.308 8.578125,19.34325 L8.578125,19.342875 Z M9.333375,19.30275 C9.34306946,19.335194 9.35774438,19.3659355 9.376875,19.393875 C9.44625,19.493625 9.51675,19.596375 9.55875,19.711875 C9.620625,19.894125 9.687375,20.077125 9.712875,20.26875 C9.726,20.345625 9.7485,20.420625 9.761625,20.4975 C9.766125,20.5635 9.761625,20.63175 9.77925,20.697 C9.792,20.862375 9.771,21.03075 9.799125,21.19575 C9.799125,21.306375 9.808875,21.418875 9.786375,21.52875 C9.781875,21.658125 9.787125,21.78825 9.78,21.918 C9.76425,21.984 9.766875,22.053 9.760125,22.1205 C9.745875,22.204875 9.724875,22.287375 9.7125,22.37175 C9.686625,22.587375 9.614625,22.793625 9.54,22.99575 C9.48525,23.115375 9.40875,23.223 9.3345,23.33025 C9.4245,23.37825 9.528,23.3385 9.619875,23.314125 C9.88924948,23.2425166 10.1433751,23.1225693 10.369875,22.960125 C10.501125,22.866375 10.607625,22.743 10.7205,22.62975 C10.9046166,22.4099684 11.0381454,22.1523847 11.111625,21.87525 C11.131125,21.796125 11.1615,21.719625 11.163375,21.6375 C11.1615,21.53325 11.187375,21.430125 11.1795,21.325125 C11.187375,21.1995 11.16525,21.075375 11.1585,20.94975 C11.0375795,20.3175183 10.6303749,19.777072 10.056,19.4865 C9.829125,19.38525 9.588,19.2765 9.333375,19.30275 L9.333375,19.30275 Z M19.594125,19.406625 C19.279125,19.529625 18.982875,19.717125 18.768,19.98225 C18.5745,20.18775 18.453,20.4495 18.35325,20.711625 C18.2858803,20.9649061 18.2601694,21.2274613 18.277125,21.489 C18.297375,21.568875 18.2865,21.653625 18.307875,21.7335 C18.33225,21.90375 18.400125,22.062375 18.47025,22.217625 C18.6487761,22.5891546 18.9380412,22.8962367 19.29825,23.096625 C19.495125,23.218875 19.722,23.276625 19.942875,23.33775 C19.99725,23.355 20.055,23.350875 20.111625,23.351625 C20.116875,23.325375 20.11275,23.296875 20.09175,23.27775 C19.93425,23.095875 19.857,22.8615 19.799625,22.6305 C19.765875,22.473375 19.70925,22.32 19.701375,22.158 C19.677375,22.07175 19.698,21.979875 19.675125,21.89325 C19.665,21.811875 19.6725,21.729375 19.652625,21.64875 C19.6465883,21.4394147 19.6468384,21.2299453 19.653375,21.020625 C19.679625,20.908125 19.657875,20.790375 19.686,20.677125 C19.681125,20.457 19.742625,20.242875 19.79475,20.031375 C19.8405,19.81125 19.9245,19.597125 20.05725,19.415625 C20.0832793,19.3833225 20.0981462,19.3434583 20.099625,19.302 C19.924875,19.290375 19.754625,19.34175 19.594125,19.406625 L19.594125,19.406625 Z M20.5065,19.32075 C20.572125,19.423875 20.649375,19.519125 20.69775,19.63125 C20.8155,19.902375 20.86725,20.19525 20.931,20.481375 C20.97225,20.81625 20.955375,21.155625 20.95875,21.492375 C20.955375,21.670875 20.967,21.85125 20.94,22.028625 C20.943375,22.189125 20.89275,22.34325 20.86125,22.498875 C20.821875,22.684125 20.77275,22.86975 20.69475,23.042625 C20.64525,23.154 20.553375,23.239125 20.5035,23.34975 C20.566125,23.350125 20.63025,23.3595 20.691375,23.341125 C20.88375,23.28675 21.081375,23.241 21.25725,23.142375 C21.6984889,22.9155721 22.0408609,22.5343579 22.219125,22.071375 C22.282125,21.910125 22.336125,21.741 22.33725,21.566625 C22.361625,21.438375 22.3485,21.30675 22.35225,21.176625 C22.33875,21.036375 22.329,20.895375 22.287375,20.75925 C22.2153458,20.5136375 22.0997583,20.2829706 21.946125,20.07825 C21.8656189,19.9752799 21.777898,19.8781604 21.683625,19.787625 C21.463125,19.5735 21.178125,19.44075 20.88975,19.345125 C20.76675,19.30875 20.631,19.272375 20.5065,19.32075 L20.5065,19.32075 Z M14.148,20.83425 C14.081625,20.868 14.03925,20.959125 14.08575,21.0255 C14.250375,21.27675 14.4315,21.515625 14.60475,21.759375 C14.671875,21.762375 14.739375,21.763125 14.8065,21.7612537 C14.850375,21.7665 14.874375,21.7215 14.898375,21.692625 C15.042375,21.475125 15.205125,21.2715 15.35775,21.06 C15.39975,21.01125 15.40425,20.93175 15.36075,20.883 C15.306375,20.8155 15.21975,20.787 15.1395,20.764125 C14.88225,20.758875 14.625375,20.764125 14.367,20.7615 C14.28825,20.75775 14.21625,20.7975 14.148,20.83425 L14.148,20.83425 Z M14.478,22.2615 C14.44725,22.356 14.454375,22.45425 14.449125,22.552125 C14.430375,22.675125 14.40525,22.79625 14.374125,22.91625 C14.257125,23.30625 13.851375,23.581125 13.44975,23.554875 C13.2090672,23.5423108 12.9734939,23.4806738 12.7575,23.37375 C12.69225,23.342625 12.63375,23.290125 12.559125,23.28825 C12.53175,23.358375 12.538125,23.43525 12.5415,23.509125 C12.5685,23.61675 12.67425,23.670375 12.763125,23.719125 C12.979875,23.815125 13.216875,23.850375 13.449375,23.887875 C13.522875,23.890125 13.59375,23.86725 13.66575,23.85525 C13.887375,23.82 14.113125,23.758875 14.29575,23.6205 C14.43225,23.52825 14.51475,23.382 14.6115,23.252625 C14.6475,23.193 14.725875,23.223375 14.782125,23.2155 C14.8635,23.29275 14.919375,23.391 14.986875,23.479875 C15.133125,23.650125 15.34125,23.756625 15.554625,23.8155 C15.741375,23.85675 15.9345,23.884875 16.1265,23.863125 C16.20675,23.846625 16.288125,23.83575 16.36875,23.824125 C16.47375,23.793 16.58175,23.76675 16.68,23.717625 C16.772625,23.662875 16.876875,23.601375 16.913625,23.492625 C16.950375,23.416125 16.911,23.335875 16.891875,23.260875 C16.660875,23.380125 16.424625,23.500875 16.164375,23.53725 C16.033875,23.542875 15.903375,23.5425 15.77325,23.5365 C15.54825,23.499 15.345375,23.377875 15.20475,23.19675 C15.0808819,23.0081933 15.0080116,22.7907451 14.99325,22.565625 C14.980125,22.46325 14.979,22.35675 14.932125,22.261875 C14.782125,22.233375 14.628375,22.233375 14.478375,22.261875 L14.478375,22.2615 L14.478,22.2615 Z M10.41525,9.614625 L13.782,9.614625 L13.782,8.701125 L10.313625,8.701125 L10.31325,6.76875 L13.421625,6.76875 L13.421625,5.85525 L6.3075,5.85525 L6.3075,6.76875 L9.41925,6.76875 L9.41925,8.346375 L9.4185,8.701125 L5.956875,8.701125 L5.956875,9.614625 L9.316875,9.614625 C8.997,10.997625 7.916625,12.163125 5.923125,13.3095 L6.3615,14.10525 C7.591125,13.398375 9.121875,12.34725 9.8655,10.743375 C10.0661547,11.1731216 10.3223423,11.5746754 10.6275,11.93775 C11.26125,12.699 12.158625,13.4085 13.370625,14.10525 L13.809,13.3095 C11.8155,12.163125 10.735125,10.997625 10.41525,9.614625 L10.41525,9.614625 Z M16.8075,6.33 C16.270125,5.836125 15.42525,5.85 14.9715,5.857125 C14.925,5.857875 14.88225,5.858625 14.844375,5.858625 L14.844375,6.76875 C14.887125,6.76875 14.935125,6.768 14.987625,6.76725 C15.30225,6.762 15.887625,6.75225 16.138125,6.982875 C16.17525,7.017 16.288125,7.1205 16.291875,7.41225 L16.29525,7.728375 L14.802,8.571375 L15.29475,9.35325 L16.297875,8.78625 C16.297875,9.10875 16.29675,9.45 16.296,9.80025 L14.802375,10.644 L15.29475,11.4255 L16.292625,10.861875 L16.291875,11.63625 C16.291875,11.845125 16.16175,12.177 16.008375,12.361125 C15.562125,12.89625 14.802,13.309125 14.794875,13.312875 L15.2685,14.104875 C15.306,14.085 16.19775,13.602375 16.7625,12.925125 C17.05125,12.579 17.253,12.049125 17.253,11.63625 C17.253,11.127375 17.2545,10.596375 17.256375,10.07625 C17.259375,9.05625 17.262375,8.093625 17.252625,7.400625 C17.246625,6.955875 17.097,6.595875 16.8075,6.33 Z M22.307625,6.49875 L22.307625,5.854875 L21.40875,5.854875 L21.40875,6.498375 L19.49775,6.498375 L19.49775,5.854875 L18.598875,5.854875 L18.598875,6.498375 L17.752125,6.498375 L17.752125,7.486875 L18.598875,7.486875 L18.598875,8.2815 L19.49775,8.2815 L19.49775,7.4865 L21.40875,7.4865 L21.40875,8.2815 L22.307625,8.2815 L22.307625,7.4865 L23.173875,7.4865 L23.173875,6.49875 L22.307625,6.49875 L22.307625,6.49875 Z M23.173875,8.76675 L17.751375,8.76675 L17.751375,12.783 C17.751375,13.5105 18.352125,14.104875 19.086375,14.104875 L21.838125,14.104875 C22.572375,14.104875 23.173125,13.510125 23.173125,12.783 L23.173125,8.7675 L23.173875,8.76675 Z M22.187625,9.73725 L22.187625,11.193375 L20.709375,11.193375 L20.709375,9.73725 L22.188,9.73725 L22.187625,9.73725 Z M20.21625,9.73725 L20.21625,11.193375 L18.738,11.193375 L18.738,9.73725 L20.21625,9.73725 Z M18.738,12.665625 L18.738,11.678625 L20.21625,11.678625 L20.21625,13.134375 L19.210875,13.134375 C18.954375,13.134375 18.738,12.919875 18.738,12.665625 Z M21.71475,13.134375 L20.709375,13.134375 L20.709375,11.678625 L22.188,11.678625 L22.188,12.665625 C22.188,12.919875 21.97125,13.134375 21.71475,13.134375 Z" id="形状" fill="#FFFFFF"></path>
                </g>
            </g>
        </g>
    </g>
</svg>