<?xml version="1.0" encoding="UTF-8"?>
<svg width="30px" height="30px" viewBox="0 0 30 30" version="1.1" xmlns="http://www.w3.org/2000/svg" xmlns:xlink="http://www.w3.org/1999/xlink">
    <!-- Generator: Sketch 61 (89581) - https://sketch.com -->
    <title>微信</title>
    <desc>Created with Sketch.</desc>
    <g id="页面-1" stroke="none" stroke-width="1" fill="none" fill-rule="evenodd">
        <g id="首页" transform="translate(-1270.000000, -47.000000)">
            <g id="顶部">
                <g id="微信" transform="translate(1270.000000, 47.000000)">
                    <circle id="椭圆形" fill="#962549" cx="15" cy="15" r="15"></circle>
                    <path d="M18.6785191,12.005079 C18.8984604,12.005079 19.1129032,12.0145679 19.3314699,12.0349013 C18.8379765,8.94422136 15.7642962,6.5625 12.0445381,6.5625 C7.9811217,6.5625 4.6875,9.40511223 4.6875,12.910594 C4.6875,14.8707358 5.71847507,16.6234766 7.33504399,17.7892594 C7.12884897,18.8086416 6.87179252,20.1492918 6.90890762,20.1045583 C6.9652676,20.0842249 8.38663856,19.3061326 9.28015029,18.7964415 C10.1337977,19.0933095 11.0657991,19.2600435 12.0445381,19.2600435 C12.1476356,19.2600435 12.2479839,19.2573324 12.3510814,19.2546213 C12.2369868,18.816775 12.1778776,18.3680841 12.1778776,17.8990599 C12.1765029,14.644357 15.0866019,12.005079 18.6785191,12.005079 Z M14.9340176,9.93242561 C15.442632,9.93242561 15.8536474,10.3377385 15.8536474,10.8379406 C15.8536474,11.3394983 15.4412573,11.7461668 14.9340176,11.7461668 C14.4267779,11.7461668 14.0143878,11.3381428 14.0143878,10.8379406 C14.0143878,10.3377385 14.4267779,9.93242561 14.9340176,9.93242561 Z M9.28564883,11.7461668 C8.77703446,11.7461668 8.3673937,11.3381428 8.3673937,10.8379406 C8.3673937,10.3377385 8.77840909,9.93242561 9.28564883,9.93242561 C9.79288856,9.93242561 10.2052786,10.3377385 10.2052786,10.8379406 C10.2052786,11.3394983 9.79288856,11.7461668 9.28564883,11.7461668 L9.28564883,11.7461668 Z M25.3125,17.7038591 C25.3125,14.7704242 22.4903776,12.3927695 19.0084311,12.3927695 C15.52511,12.3927695 12.7016129,14.7717798 12.7016129,17.7038591 C12.7016129,20.6372939 15.52511,23.0176597 19.0084311,23.0176597 C19.9555535,23.0176597 20.8531891,22.8400812 21.6614736,22.5242354 C22.4931268,22.9620817 23.3990103,23.4229726 23.4443732,23.4365282 C23.4759897,23.4704172 23.2972874,22.6123468 23.1034641,21.7461431 C24.4533541,20.7674278 25.3125,19.3223994 25.3125,17.7038591 Z M16.642687,16.5380763 C16.1340726,16.5380763 15.7216826,16.1327634 15.7216826,15.6325613 C15.7216826,15.1323591 16.1340726,14.7243351 16.642687,14.7243351 C17.1499267,14.7243351 17.5609421,15.1323591 17.5609421,15.6325613 C17.5609421,16.1327634 17.1499267,16.5380763 16.642687,16.5380763 Z M21.2394611,16.5380763 C20.7322214,16.5380763 20.3184567,16.1327634 20.3184567,15.6325613 C20.3184567,15.1323591 20.7322214,14.7243351 21.2394611,14.7243351 C21.7467009,14.7243351 22.1604655,15.1323591 22.1604655,15.6325613 C22.1604655,16.1327634 21.7467009,16.5380763 21.2394611,16.5380763 Z" id="形状" fill="#FFFFFF" fill-rule="nonzero"></path>
                </g>
            </g>
        </g>
    </g>
</svg>