<?xml version="1.0" encoding="UTF-8"?>
<svg width="30px" height="30px" viewBox="0 0 30 30" version="1.1" xmlns="http://www.w3.org/2000/svg" xmlns:xlink="http://www.w3.org/1999/xlink">
    <!-- Generator: Sketch 61 (89581) - https://sketch.com -->
    <title>微博</title>
    <desc>Created with Sketch.</desc>
    <g id="页面-1" stroke="none" stroke-width="1" fill="none" fill-rule="evenodd">
        <g id="首页" transform="translate(-1325.000000, -47.000000)" fill="#1A181C" fill-rule="nonzero">
            <g id="顶部">
                <g id="微博" transform="translate(1325.000000, 47.000000)">
                    <path d="M15.000045,0 C6.71576673,0 0,6.71574658 0,15.00009 C0,23.2842534 6.71576673,30 15.000045,30 C23.2843233,30 30,23.2842534 30,15.00009 C30,6.71574658 23.2843233,0 15.000045,0 Z M13.6092299,22.4764602 C9.77549398,22.4764602 5.85675063,20.6185449 5.85675063,17.5626677 C5.85675063,15.9650549 6.86891813,14.1175818 8.61206547,12.3740796 C10.9396126,10.0471695 13.6539091,8.98720542 14.6747183,10.0086417 C15.1251407,10.4584026 15.1687396,11.23781 14.8792402,12.1680579 C14.7283393,12.6366926 15.3190704,12.3772002 15.3190704,12.3782204 C17.2003961,11.5905613 18.8417326,11.5441419 19.4416155,12.4013251 C19.7617512,12.8581073 19.7311149,13.4986167 19.4360644,14.2409067 C19.2995964,14.5828557 19.478043,14.6358464 19.7382863,14.7139822 C20.7983437,15.0426086 21.9781555,15.8374692 21.9781555,17.2381521 C21.9781555,19.5564504 18.6350202,22.4764602 13.6092299,22.4764602 Z M20.5497127,12.7598675 C20.6736981,12.3768101 20.5960122,11.9401919 20.3069629,11.6197872 C20.0181837,11.3000126 19.5914062,11.1786681 19.1978156,11.2618749 L19.1978156,11.2611848 C18.8695183,11.3326292 18.5459019,11.1218966 18.4755075,10.7939004 C18.404933,10.4645238 18.614676,10.1406384 18.9437535,10.0705142 C19.7489085,9.89932966 20.6211873,10.1482299 21.2118584,10.8035623 C21.8037898,11.4588047 21.9620722,12.351395 21.7090604,13.1344031 C21.6057792,13.4549879 21.2623588,13.6295032 20.9422232,13.5270325 C20.6221775,13.4234215 20.4471517,13.0795821 20.5503128,12.7598675 L20.5497127,12.7598675 Z M24.0990503,13.906069 C24.0988403,13.9066992 24.0988403,13.9081094 24.0988403,13.9087996 C23.9783956,14.2801846 23.5792838,14.4835657 23.2080476,14.3633614 C22.8353412,14.2430371 22.6316895,13.8447966 22.7519842,13.4725114 L22.7517741,13.4722714 C23.1209698,12.3294305 22.8868318,11.0257272 22.0248451,10.0699441 C21.1620782,9.11407104 19.8899374,8.74895729 18.7144165,8.99857771 C18.3320481,9.08010418 17.956041,8.83603488 17.8745143,8.45405772 C17.7926575,8.07241063 18.0363975,7.69625464 18.4187658,7.61442811 L18.419456,7.61442811 C20.0718047,7.26311715 21.8620017,7.77607077 23.0757205,9.12169258 C24.2897694,10.4659041 24.6170165,12.2984943 24.0990503,13.906069 Z M18.7695678,16.9461631 C18.5712571,14.9384876 15.9304157,13.5556582 12.8709285,13.8581493 C9.81210148,14.1606404 7.49244595,16.0335588 7.69114669,18.0416244 C7.88987742,20.0502001 10.5305988,21.4330295 13.5897559,21.1311385 C16.6493031,20.8284674 18.9679684,18.955369 18.7695678,16.9461631 Z M15.5550088,18.5946661 C14.9307008,20.0067814 13.1349827,20.7596334 11.6115704,20.2683142 C10.1407589,19.7936183 9.51810121,18.341445 10.1620632,17.0332407 C10.7943528,15.7506016 12.4397101,15.0251151 13.8954286,15.4038216 C15.4019774,15.7932102 16.170765,17.2143873 15.5550088,18.5946661 Z M12.4421406,17.5189188 C11.9684635,17.3203387 11.356128,17.52453 11.0638081,17.9829025 C10.7678874,18.4432555 10.9067259,18.9914963 11.3771023,19.2056795 C11.8543201,19.4235836 12.48793,19.2167218 12.7838807,18.7446364 C13.0744303,18.2679001 12.9214289,17.7232001 12.4421406,17.5189188 Z M13.60968,17.034891 C13.4279027,16.9627565 13.2006361,17.0500741 13.0940543,17.2288802 C12.9905031,17.4085865 13.0476348,17.6132579 13.2298021,17.688213 C13.4151201,17.7644884 13.6516286,17.6764206 13.7586305,17.4935937 C13.8607415,17.3093565 13.7943678,17.1024347 13.60968,17.034891 Z" id="形状"></path>
                </g>
            </g>
        </g>
    </g>
</svg>